HIERARCHY
ROOT Hips
{
	OFFSET 0.00000 0.00000 0.00000
	CHANNELS 6 Xposition Yposition Zposition Zrotation Yrotation Xrotation 
	JOINT RightUpLegDummy
	{
		OFFSET 0 0 0
		CHANNELS 3 Zrotation Yrotation Xrotation
		JOINT RightUpLeg
		{
			OFFSET -3.52197 -3.41223 0.04002
			CHANNELS 3 Zrotation Yrotation Xrotation
			JOINT RightLeg
			{
				OFFSET 0.00006 -17.42390 1.60435
				CHANNELS 3 Zrotation Yrotation Xrotation
				JOINT RightFoot
				{
					OFFSET 0.06153 -16.50078 -1.63901
					CHANNELS 3 Zrotation Yrotation Xrotation
					JOINT RightToes
					{
						OFFSET 0.00298 -1.73825 3.34613
						CHANNELS 3 Zrotation Yrotation Xrotation
						End Site
						{
							OFFSET 0.00480 -0.05416 3.85043
						}
					}
				}
			}
		}
	}
	JOINT SpineDummy
	{
		OFFSET 0 0 0
		CHANNELS 3 Zrotation Yrotation Xrotation
		JOINT Spine
		{
			OFFSET 0.00000 4.68130 0.00000
			CHANNELS 3 Zrotation Yrotation Xrotation
			JOINT Spine1
			{
				OFFSET -0.00000 10.10138 0.05002
				CHANNELS 3 Zrotation Yrotation Xrotation
				JOINT HEadDummy
				{
					OFFSET 0 0 0
					CHANNELS 3 Zrotation Yrotation Xrotation
					JOINT Head
					{
						OFFSET -0.00000 3.43865 0.00438
						CHANNELS 3 Zrotation Yrotation Xrotation
						End Site
						{
							OFFSET -0.11417 5.02924 0.98962
						}
					}
				}
				JOINT LeftShoulder1Dummy
				{
					OFFSET 0 0 0
					CHANNELS 3 Zrotation Yrotation Xrotation
					JOINT LeftShoulder1
					{
						OFFSET 3.53937 -0.14262 -0.08662
						CHANNELS 3 Zrotation Yrotation Xrotation
						JOINT LeftArm
						{
							OFFSET 4.04833 -0.00133 0.12681
							CHANNELS 3 Zrotation Yrotation Xrotation
							JOINT LeftForeArm
							{
								OFFSET 10.33880 -0.01036 -0.55515
								CHANNELS 3 Zrotation Yrotation Xrotation
								JOINT LeftHand
								{
									OFFSET 8.69677 0.07543 0.40060
									CHANNELS 3 Zrotation Yrotation Xrotation
									End Site
									{
										OFFSET 5.28377 -0.21905 0.59205
									}
								}
							}
						}
					}
				}
				JOINT RightShoulderDummy
				{
					OFFSET 0 0 0
					CHANNELS 3 Zrotation Yrotation Xrotation
					JOINT RightShoulder
					{
						OFFSET -3.53937 -0.14262 -0.08660
						CHANNELS 3 Zrotation Yrotation Xrotation
						JOINT RightArm
						{
							OFFSET -4.04833 -0.00133 0.12683
							CHANNELS 3 Zrotation Yrotation Xrotation
							JOINT RightForeArm
							{
								OFFSET -10.37987 -0.01039 -0.55511
								CHANNELS 3 Zrotation Yrotation Xrotation
								JOINT RightHand
								{
									OFFSET -8.67398 0.07538 0.40058
									CHANNELS 3 Zrotation Yrotation Xrotation
									End Site
									{
										OFFSET -5.24810 -0.21916 0.59204
									}
								}
							}
						}
					}
				}
			}
		}
	}
	JOINT LeftUpLegDummy
	{
		OFFSET 0 0 0
		CHANNELS 3 Zrotation Yrotation Xrotation
		JOINT LeftUpLeg
		{
			OFFSET 3.52197 -3.41223 0.04002
			CHANNELS 3 Zrotation Yrotation Xrotation
			JOINT LeftLeg
			{
				OFFSET -0.00012 -17.42399 1.60337
				CHANNELS 3 Zrotation Yrotation Xrotation
				JOINT LeftFoot
				{
					OFFSET -0.09972 -16.50070 -1.63802
					CHANNELS 3 Zrotation Yrotation Xrotation
					JOINT LeftToes
					{
						OFFSET -0.01575 -1.73823 3.34611
						CHANNELS 3 Zrotation Yrotation Xrotation
						End Site
						{
							OFFSET 0.03150 -0.01868 3.85031
						}
					}
				}
			}
		}
	}
}
MOTION
Frames: 9
Frame Time: 0.033333
0.0510 40.1437 -3.1010 -1.6154 -4.8131 -0.4416 0.0000 0.0000 0.0000 -1.3575 -2.6745 0.2519 -2.0665 -7.6695 2.3565 2.3364 -0.2064 -1.2307 0.0000 -0.0000 0.0000 0.0000 0.0000 0.0000 0.3640 -0.5730 -0.3382 3.6799 -1.3926 2.5891 -0.0000 0.0000 -0.0000 2.9912 -3.1388 -5.3285 -0.0000 0.0000 -0.0000 -34.1782 -2.9252 2.5845 -43.4386 -18.7326 -23.7948 -6.3486 5.0733 51.3447 14.4721 -4.1059 -1.1529 -0.0000 0.0000 -0.0000 34.5329 5.1455 3.5072 39.6149 6.8175 -15.4098 11.0482 -0.9631 26.0770 -11.7934 2.1063 -0.7446 0.0000 0.0000 0.0000 5.0245 3.4356 0.7847 2.6794 10.6815 5.1917 -1.7025 0.1295 -3.6703 0.0000 0.0000 -0.0000
0.0510 40.1437 -3.1010 -1.6154 -4.8131 -0.4416 0.0000 0.0000 0.0000 -1.3719 -2.6852 0.2413 -2.0677 -7.6509 2.3725 2.3761 -0.2090 -1.2308 0.0000 -0.0000 0.0000 0.0000 0.0000 0.0000 0.3490 -0.5584 -0.2564 3.7127 -1.3793 2.4715 -0.0000 0.0000 -0.0000 3.0261 -3.0094 -5.4104 -0.0000 0.0000 -0.0000 -34.2240 -2.9234 2.5845 -43.4392 -18.5221 -23.6351 -6.4557 5.0757 51.2353 14.4468 -4.0943 -1.1494 -0.0000 0.0000 -0.0000 34.4698 5.1382 3.4987 39.6421 6.7586 -15.4527 11.0139 -0.9548 26.2754 -11.6152 2.1564 -0.7376 0.0000 0.0000 0.0000 5.0143 3.4356 0.7795 2.6802 10.6680 5.1961 -1.6512 0.1262 -3.6577 0.0000 0.0000 -0.0000
0.0510 40.1437 -3.1010 -1.6154 -4.8131 -0.4416 0.0000 0.0000 0.0000 -1.3813 -2.6905 0.2278 -2.0681 -7.6444 2.3967 2.4110 -0.2112 -1.2309 0.0000 -0.0000 0.0000 0.0000 0.0000 0.0000 0.3517 -0.5414 -0.1239 3.7354 -1.3601 2.2936 -0.0000 0.0000 -0.0000 3.1203 -2.8793 -5.5431 -0.0000 0.0000 -0.0000 -34.2824 -2.9155 2.5845 -43.4428 -18.2290 -23.4425 -6.5832 5.0787 51.1032 14.3951 -4.0377 -1.1385 -0.0000 0.0000 -0.0000 34.3854 5.1291 3.4876 39.6622 6.6887 -15.5461 10.9537 -0.9627 26.6030 -11.3293 2.2537 -0.7276 0.0000 0.0000 0.0000 5.0130 3.4356 0.7633 2.6810 10.6563 5.2225 -1.6560 0.1265 -3.6691 0.0000 0.0000 -0.0000
0.0510 40.1437 -3.1010 -1.6154 -4.8199 -0.4416 0.0000 0.0000 0.0000 -1.3803 -2.6934 0.2232 -2.0684 -7.6399 2.4102 2.3867 -0.2097 -1.2308 0.0000 -0.0000 0.0000 0.0000 0.0000 0.0000 0.3820 -0.5379 -0.0594 3.7196 -1.3530 2.2453 -0.0000 0.0000 -0.0000 3.2485 -2.9634 -5.6469 -0.0000 0.0000 -0.0000 -34.2858 -2.9071 2.5845 -43.4619 -18.1161 -23.4106 -6.5981 5.0783 51.1117 14.3771 -4.0013 -1.1328 -0.0000 0.0000 -0.0000 34.3953 5.1357 3.4912 39.5900 6.6967 -15.6165 10.9093 -0.9582 26.8194 -11.0809 2.4240 -0.7261 0.0000 0.0000 0.0000 5.0192 3.4356 0.7554 2.6827 10.6740 5.2504 -1.7111 0.1301 -3.6963 0.0000 0.0000 -0.0000
0.0510 40.1437 -3.0991 -1.6154 -4.8507 -0.4398 0.0000 0.0000 0.0000 -1.3816 -2.6942 0.2192 -2.0622 -7.6102 2.4139 2.3368 -0.2065 -1.2307 0.0000 -0.0000 0.0000 0.0000 0.0000 0.0000 0.3889 -0.5360 -0.0744 3.7343 -1.3569 2.3114 -0.0000 0.0000 -0.0000 3.3259 -3.1722 -5.7217 -0.0000 0.0000 -0.0000 -34.2720 -2.8979 2.5800 -43.4764 -18.1537 -23.4968 -6.5302 5.0734 51.2921 14.4372 -4.0663 -1.1454 -0.0000 0.0000 -0.0000 34.4470 5.1496 3.5013 39.4863 6.7472 -15.5675 10.9133 -0.8474 26.8701 -10.9689 2.5588 -0.7308 0.0000 0.0000 0.0000 5.0166 3.4356 0.7663 2.6923 10.7162 5.2494 -1.7296 0.1313 -3.7033 0.0000 0.0000 -0.0000
0.0510 40.1437 -3.0955 -1.6154 -4.8968 -0.4299 0.0000 0.0000 0.0000 -1.3818 -2.6911 0.2043 -2.0555 -7.5664 2.4195 2.3236 -0.2056 -1.2307 0.0000 -0.0000 0.0000 0.0000 0.0000 0.0000 0.3647 -0.5239 -0.0626 3.7963 -1.3550 2.2839 -0.0000 0.0000 -0.0000 3.3310 -3.2095 -5.7538 -0.0000 0.0000 -0.0000 -34.2982 -2.8745 2.5723 -43.4569 -18.1462 -23.6022 -6.4561 5.0675 51.5037 14.5392 -4.1554 -1.1643 -0.0000 0.0000 -0.0000 34.4087 5.1439 3.4956 39.5088 6.7604 -15.4406 10.9528 -0.6791 26.7905 -11.0595 2.4821 -0.7315 0.0000 0.0000 0.0000 5.0066 3.4356 0.7791 2.7011 10.7563 5.2298 -1.7093 0.1300 -3.6934 0.0000 0.0000 -0.0000
0.0510 40.1437 -3.0922 -1.6154 -4.9359 -0.4097 0.0000 0.0000 0.0000 -1.3764 -2.6791 0.1806 -2.0556 -7.5382 2.4226 2.3449 -0.2070 -1.2307 0.0000 -0.0000 0.0000 0.0000 0.0000 0.0000 0.3788 -0.5136 0.0333 3.8080 -1.3397 2.0698 -0.0000 0.0000 -0.0000 3.3439 -2.9761 -5.6467 -0.0000 0.0000 -0.0000 -34.3213 -2.8423 2.5607 -43.4245 -18.0529 -23.7634 -6.3579 5.0651 51.6073 14.6012 -4.1209 -1.1654 -0.0000 0.0000 -0.0000 34.3054 5.1177 3.4760 39.6631 6.7432 -15.4135 10.9743 -0.6435 26.5760 -11.2710 2.2585 -0.7257 0.0000 0.0000 0.0000 5.0029 3.4356 0.7709 2.7098 10.7864 5.2284 -1.7108 0.1301 -3.6992 0.0000 0.0000 -0.0000
0.0510 40.1437 -3.0901 -1.6154 -4.9621 -0.3802 0.0000 0.0000 0.0000 -1.3629 -2.6596 0.1523 -2.0580 -7.5278 2.4167 2.3531 -0.2075 -1.2307 0.0000 -0.0000 0.0000 0.0000 0.0000 0.0000 0.4504 -0.5159 0.1364 3.7468 -1.3238 1.8103 -0.0000 0.0000 -0.0000 3.3843 -2.7021 -5.3505 -0.0000 0.0000 -0.0000 -34.3070 -2.8208 2.5522 -43.4048 -17.9890 -24.0063 -6.2093 5.0660 51.6187 14.6163 -3.9795 -1.1498 -0.0000 0.0000 -0.0000 34.2564 5.0994 3.4644 39.7926 6.7037 -15.5016 10.9605 -0.6439 26.2610 -11.3722 2.1378 -0.7201 0.0000 0.0000 0.0000 5.0066 3.4324 0.7372 2.7257 10.8195 5.2515 -1.7386 0.1318 -3.7201 0.0000 0.0000 -0.0000
0.0510 40.1437 -3.0870 -1.6154 -4.9867 -0.3353 0.0000 0.0000 0.0000 -1.3531 -2.6468 0.1143 -2.0615 -7.5173 2.3975 2.3415 -0.2068 -1.2307 0.0000 -0.0000 0.0000 0.0000 0.0000 0.0000 0.4892 -0.5156 0.1584 3.7497 -1.3205 1.6546 -0.0000 0.0000 -0.0000 3.3401 -2.5924 -4.9966 -0.0000 0.0000 -0.0000 -34.3501 -2.8125 2.5543 -43.3629 -17.9713 -24.1701 -6.1167 5.0689 51.5489 14.6974 -3.8693 -1.1433 -0.0000 0.0000 -0.0000 34.2545 5.1016 3.4651 39.8486 6.4793 -15.3541 11.0015 0.0229 25.8663 -11.1950 2.1751 -0.7118 0.0000 0.0000 0.0000 5.0054 3.4222 0.6920 2.7456 10.8580 5.2665 -1.7486 0.1325 -3.7241 0.0000 0.0000 -0.0000
